<svg id="Layer_1" enable-background="new 0 0 464.004 464.004" height="512" viewBox="0 0 464.004 464.004" width="512" xmlns="http://www.w3.org/2000/svg"><path d="m464.004 173.004v118c0 26.51-21.49 48-48 48h-368c-26.51 0-48-21.49-48-48v-118c0-26.51 21.49-48 48-48h368c26.51 0 48 21.49 48 48z" fill="#e8f8fc"/><path d="m416.692 164.967c-45.675-.029-138.418.036-328.682.036-26.51 0-48.006 21.496-48.006 48.005 0 35.852-.018 61.055-.027 78.873-.013 25.912-38.893 26.975-39.934 1.083-.062-1.53-.039-120.963-.039-119.962 0-26.51 21.49-48 48-48 2.574 0 368.399-.018 369.791.033 25.909.952 24.824 39.949-1.103 39.932z" fill="#f1fafc"/><path d="m371.004 285.004c-8.414 0-16-6.616-16-16.34 0-8.836 7.164-16 16-16 8.414 0 16 6.616 16 16.34 0 8.836-7.164 16-16 16z" fill="#fe4f60"/><path d="m373.004 236.504c-8.836 0-16-7.164-16-16v-25.16c0-8.836 7.164-16 16-16s16 7.164 16 16v25.16c0 8.836-7.164 16-16 16z" fill="#fe4f60"/><g fill="#4d4e59"><path d="m149.318 208.875c-3.948-7.905-13.557-11.113-21.463-7.166l-8.852 4.42v-10.786c0-8.836-7.164-16-16-16s-16 7.164-16 16v10.786l-8.852-4.42c-7.906-3.947-17.515-.739-21.463 7.166-3.948 7.906-.739 17.515 7.166 21.463l3.335 1.666-3.335 1.666c-7.905 3.948-11.114 13.557-7.166 21.463 3.949 7.909 13.56 11.112 21.463 7.166l8.852-4.42v10.786c0 8.836 7.164 16 16 16s16-7.164 16-16v-10.786l8.852 4.42c7.909 3.949 17.516.736 21.463-7.166 3.948-7.906.739-17.515-7.166-21.463l-3.335-1.666 3.335-1.666c7.906-3.948 11.114-13.557 7.166-21.463z"/><path d="m271.152 233.669-3.335-1.666 3.335-1.666c7.905-3.948 11.114-13.557 7.166-21.463-3.947-7.905-13.556-11.113-21.463-7.166l-8.852 4.42v-10.786c0-8.836-7.164-16-16-16s-16 7.164-16 16v10.786l-8.852-4.42c-7.905-3.947-17.515-.739-21.463 7.166-3.948 7.906-.739 17.515 7.166 21.463l3.335 1.666-3.335 1.666c-7.905 3.948-11.114 13.557-7.166 21.463 3.949 7.909 13.56 11.112 21.463 7.166l8.852-4.42v10.786c0 8.836 7.164 16 16 16s16-7.164 16-16v-10.786c9.25 4.619 11.28 6.109 15.988 6.109 16.846 0 22.209-22.803 7.161-30.318z"/></g></svg>