<svg width="152" height="129" viewBox="0 0 152 129" fill="none" xmlns="http://www.w3.org/2000/svg">
<path fill-rule="evenodd" clip-rule="evenodd" d="M17.4879 89.7864C15.1678 89.7864 12.4144 90.2783 9.40594 93.7662V84.0051C9.40594 81.5392 7.40458 79.5333 4.9443 79.5333C2.48403 79.5333 0.482666 81.5392 0.482666 84.0051V115.837C0.482666 118.303 2.48403 120.309 4.9443 120.309C7.40458 120.309 9.40594 118.303 9.40594 115.837V103.483C9.40594 99.9309 11.0886 97.9697 14.1544 97.9697C17.1564 97.9697 18.7371 99.8734 18.7371 103.483V115.837C18.7371 118.303 20.7385 120.309 23.1988 120.309C25.659 120.309 27.6604 118.303 27.6604 115.837V100.889C27.654 93.9387 23.8553 89.7864 17.4879 89.7864ZM43.1109 90.0037C39.4778 90.0037 36.5969 90.4764 33.7733 91.5369C32.3073 92.0863 31.3258 93.5044 31.3258 95.0632C31.3258 97.1457 32.9766 98.7747 35.0863 98.7747C35.5197 98.7747 35.883 98.7108 36.3802 98.5447C38.0947 98.0081 39.9049 97.7526 41.9253 97.7526C46.7184 97.7526 47.7382 100.404 47.751 102.646C46.0874 102.103 43.9904 101.605 41.0649 101.605C33.4419 101.605 29.0695 105.099 29.0695 111.2V111.308C29.0695 116.821 33.1997 120.527 39.344 120.527C42.8049 120.527 45.5775 119.472 47.7892 117.313C48.1653 118.891 49.6758 120.316 51.9959 120.316C54.437 120.316 56.3492 118.425 56.3492 116.01V102.831C56.3492 98.6853 55.2656 95.4912 53.1177 93.3447C50.8996 91.128 47.5343 90.0037 43.1109 90.0037ZM41.817 114.119C39.2866 114.119 37.7187 112.918 37.7187 110.983V110.874C37.7187 108.568 39.6435 107.252 43.0025 107.252C44.7234 107.252 46.438 107.59 47.8593 108.204V109.424C47.8593 112.184 45.3735 114.119 41.817 114.119ZM68.3062 93.8433C70.6135 91.1155 73.4562 89.7867 76.9745 89.7867C83.6861 89.7867 90.4741 95.0442 90.4741 105.099V105.208C90.4741 109.839 89.0528 113.762 86.3694 116.56C83.9155 119.121 80.582 120.527 76.9745 120.527C73.5008 120.527 70.7409 119.339 68.3508 116.809V124.475C68.3508 126.941 66.3494 128.946 63.8891 128.946C61.4289 128.946 59.4275 126.941 59.4275 124.475V94.4757C59.4275 92.0098 61.4289 90.0039 63.8891 90.0039C66.1391 90.0039 68.0002 91.6777 68.3062 93.8433ZM81.5572 105.099C81.5572 100.762 78.6826 97.4845 74.8711 97.4845C71.0341 97.4845 68.2424 100.685 68.2424 105.099V105.208C68.2424 109.622 71.0277 112.823 74.8711 112.823C78.7464 112.823 81.5572 109.622 81.5572 105.208V105.099ZM110.08 89.7867C106.561 89.7867 103.719 91.1155 101.411 93.8433C101.105 91.6777 99.2443 90.0039 96.9943 90.0039C94.5341 90.0039 92.5327 92.0098 92.5327 94.4757V124.475C92.5327 126.941 94.5341 128.946 96.9943 128.946C99.4546 128.946 101.456 126.941 101.456 124.475V116.809C103.846 119.339 106.606 120.527 110.08 120.527C113.687 120.527 117.021 119.121 119.475 116.56C122.158 113.762 123.579 109.839 123.579 105.208V105.099C123.579 95.0442 116.791 89.7867 110.08 89.7867ZM107.976 97.4845C111.788 97.4845 114.662 100.762 114.662 105.099V105.208C114.662 109.622 111.852 112.823 107.976 112.823C104.133 112.823 101.348 109.622 101.348 105.208V105.099C101.348 100.685 104.139 97.4845 107.976 97.4845ZM143.485 93.3768C144.313 91.1664 145.792 90.0038 147.761 90.0038C150.139 90.0038 152.006 91.8244 152 94.137C152 94.8077 151.783 95.7787 151.592 96.2259L141.528 120.45C138.998 126.589 136.359 128.767 131.445 128.767C129.711 128.767 128.379 128.537 126.849 127.988C125.797 127.605 124.026 126.608 124.026 124.245C124.026 121.919 125.855 120.533 127.62 120.533C128.321 120.533 128.742 120.654 129.08 120.769C129.775 120.987 130.157 121.076 130.686 121.076C132.025 121.076 132.586 120.859 133.261 119.562L133.465 119.077L123.675 96.3409C123.452 95.7787 123.216 94.9099 123.216 94.303C123.216 91.85 125.109 89.9974 127.62 89.9974C129.692 89.9974 131.094 91.0834 131.897 93.3193L137.793 109.207L143.485 93.3768Z" fill="#FF669D"/>
<path d="M107.974 18.7786V44.9078C107.974 55.2784 99.5339 63.6863 89.1237 63.6863H87.217L77.4805 73.3795C77.0992 73.7594 76.5717 74 75.987 74C75.4467 74 74.9574 73.8037 74.5824 73.4745L74.4172 73.3099L74.4108 73.3036L64.7569 63.6863H62.8439C52.44 63.6863 44 55.2784 44 44.9078V18.7786C44 8.40794 52.44 0 62.8503 0H89.1237C99.5339 0 107.974 8.40794 107.974 18.7786Z" fill="#FF669D"/>
<path d="M58.895 36.197C57.0392 36.197 55.9814 38.3036 57.0582 39.8247C61.2449 45.7501 68.1677 49.6133 75.99 49.6133C83.8123 49.6133 90.7289 45.7437 94.9155 39.8247C95.9923 38.3036 94.9345 36.197 93.0787 36.197H58.895Z" fill="white"/>
<path d="M69.764 27.2298H58.5658V21.6036C58.5658 18.4977 61.074 15.9774 64.1649 15.9774C67.2558 15.9774 69.764 18.4977 69.764 21.6036V27.2298Z" fill="white"/>
<path d="M93.4148 27.2298H82.2166V21.6036C82.2166 18.4977 84.7248 15.9774 87.8157 15.9774C90.9066 15.9774 93.4148 18.4977 93.4148 21.6036V27.2298Z" fill="white"/>
</svg>
